<svg width="44" height="78" viewBox="0 0 44 78" fill="none" xmlns="http://www.w3.org/2000/svg">
<path d="M41.3981 61.1044C41.7097 61.1044 42.0183 61.1658 42.3063 61.2851C42.5942 61.4044 42.8558 61.5792 43.0762 61.7995C43.2966 62.0199 43.4714 62.2815 43.5906 62.5694C43.7099 62.8574 43.7713 63.166 43.7713 63.4776C43.7727 63.7897 43.7123 64.0989 43.5936 64.3875C43.4748 64.6761 43.3 64.9383 43.0794 65.1589C42.8587 65.3796 42.5966 65.5543 42.308 65.6731C42.0194 65.7918 41.7101 65.8523 41.3981 65.8508C41.0869 65.8508 40.7789 65.7894 40.4915 65.67C40.2042 65.5506 39.9433 65.3756 39.7238 65.1551C39.5043 64.9346 39.3305 64.6729 39.2124 64.385C39.0944 64.0971 39.0342 63.7888 39.0357 63.4776C39.0357 62.8501 39.2843 62.2481 39.727 61.8033C40.1697 61.3586 40.7705 61.1073 41.3981 61.1044ZM41.3981 49.0443C41.7097 49.0443 42.0183 49.1057 42.3063 49.225C42.5942 49.3442 42.8558 49.519 43.0762 49.7394C43.2966 49.9598 43.4714 50.2214 43.5906 50.5093C43.7099 50.7972 43.7713 51.1059 43.7713 51.4175C43.7727 51.7296 43.7123 52.0388 43.5936 52.3273C43.4748 52.6159 43.3 52.8781 43.0794 53.0988C42.8587 53.3194 42.5966 53.4942 42.308 53.6129C42.0194 53.7317 41.7101 53.7921 41.3981 53.7907C41.0869 53.7907 40.7789 53.7292 40.4915 53.6098C40.2042 53.4904 39.9433 53.3155 39.7238 53.0949C39.5043 52.8744 39.3305 52.6127 39.2124 52.3248C39.0944 52.037 39.0342 51.7286 39.0357 51.4175C39.0357 50.79 39.2843 50.1879 39.727 49.7432C40.1697 49.2984 40.7705 49.0471 41.3981 49.0443ZM41.3981 36.995C41.7092 36.9935 42.0176 37.0536 42.3055 37.1717C42.5934 37.2898 42.855 37.4636 43.0756 37.6831C43.2961 37.9026 43.471 38.1635 43.5904 38.4508C43.7098 38.7381 43.7713 39.0462 43.7713 39.3573C43.7713 39.669 43.7099 39.9776 43.5906 40.2655C43.4714 40.5535 43.2966 40.8151 43.0762 41.0355C42.8558 41.2558 42.5942 41.4307 42.3063 41.5499C42.0183 41.6692 41.7097 41.7305 41.3981 41.7305C40.7705 41.7277 40.1697 41.4764 39.727 41.0317C39.2843 40.5869 39.0357 39.9849 39.0357 39.3573C39.0342 39.0467 39.0944 38.7389 39.2126 38.4516C39.3308 38.1643 39.5048 37.9033 39.7244 37.6837C39.9441 37.464 40.2051 37.2901 40.4924 37.1719C40.7796 37.0537 41.0874 36.9935 41.3981 36.995ZM41.3981 24.924C41.7101 24.9226 42.0194 24.983 42.308 25.1018C42.5966 25.2205 42.8587 25.3953 43.0794 25.6159C43.3 25.8366 43.4748 26.0988 43.5936 26.3873C43.7123 26.6759 43.7727 26.9852 43.7713 27.2972C43.7713 27.6089 43.7099 27.9175 43.5906 28.2054C43.4714 28.4933 43.2966 28.7549 43.0762 28.9753C42.8558 29.1957 42.5942 29.3705 42.3063 29.4898C42.0183 29.609 41.7097 29.6704 41.3981 29.6704C40.7705 29.6676 40.1697 29.4163 39.727 28.9715C39.2843 28.5268 39.0357 27.9248 39.0357 27.2972C39.0342 26.9861 39.0944 26.6777 39.2124 26.3899C39.3305 26.102 39.5043 25.8403 39.7238 25.6198C39.9433 25.3993 40.2042 25.2243 40.4915 25.1049C40.7789 24.9855 41.0869 24.924 41.3981 24.924ZM41.3981 12.8639C41.7092 12.8625 42.0176 12.9226 42.3055 13.0406C42.5934 13.1587 42.855 13.3325 43.0756 13.552C43.2961 13.7715 43.471 14.0324 43.5904 14.3197C43.7098 14.6071 43.7713 14.9152 43.7713 15.2263C43.7727 15.5389 43.7124 15.8486 43.5938 16.1378C43.4751 16.427 43.3005 16.6899 43.08 16.9114C42.8595 17.1329 42.5974 17.3087 42.3088 17.4286C42.0201 17.5486 41.7106 17.6103 41.3981 17.6103C41.0864 17.6089 40.7781 17.5461 40.4907 17.4255C40.2033 17.3049 39.9425 17.129 39.7232 16.9076C39.5038 16.6862 39.3301 16.4238 39.2122 16.1353C39.0942 15.8468 39.0342 15.538 39.0357 15.2263C39.0357 14.5997 39.2846 13.9989 39.7276 13.5558C40.1707 13.1128 40.7715 12.8639 41.3981 12.8639ZM41.3981 0.792969C41.7097 0.792969 42.0183 0.85437 42.3063 0.973634C42.5942 1.0929 42.8558 1.2677 43.0762 1.48808C43.2966 1.70845 43.4714 1.97008 43.5906 2.25801C43.7099 2.54594 43.7713 2.85452 43.7713 3.16617C43.7713 3.47732 43.7098 3.7854 43.5904 4.07273C43.471 4.36005 43.2961 4.62098 43.0756 4.84049C42.855 5.06 42.5934 5.23378 42.3055 5.35187C42.0176 5.46995 41.7092 5.53 41.3981 5.52858C41.0874 5.53001 40.7796 5.46989 40.4924 5.35167C40.2051 5.23345 39.9441 5.05948 39.7244 4.83983C39.5048 4.62017 39.3308 4.35917 39.2126 4.0719C39.0944 3.78464 39.0342 3.47681 39.0357 3.16617C39.0357 2.53863 39.2843 1.93665 39.727 1.49189C40.1697 1.04714 40.7705 0.795821 41.3981 0.792969Z" fill="#21A099"/>
<path d="M39.0356 75.5375C39.0412 74.9117 39.2916 74.3129 39.7332 73.8694C40.1747 73.4258 40.7723 73.1727 41.3981 73.1643C42.0257 73.1699 42.6262 73.4217 43.0701 73.8655C43.4033 74.1968 43.6306 74.6195 43.7233 75.0801C43.816 75.5407 43.7699 76.0184 43.5908 76.4528C43.4117 76.8871 43.1078 77.2586 42.7174 77.52C42.3271 77.7815 41.8679 77.9212 41.3981 77.9215C40.7704 77.913 40.1712 77.6584 39.7294 77.2126C39.2876 76.7667 39.0384 76.1652 39.0356 75.5375Z" fill="#21A099"/>
<path d="M28.3568 61.1044C28.9863 61.1044 29.5899 61.3545 30.0349 61.7995C30.48 62.2446 30.7301 62.8482 30.7301 63.4776C30.7315 63.7897 30.671 64.0989 30.5523 64.3875C30.4335 64.6761 30.2588 64.9383 30.0381 65.1589C29.8175 65.3796 29.5553 65.5543 29.2667 65.6731C28.9781 65.7918 28.6689 65.8523 28.3568 65.8508C27.7283 65.848 27.1263 65.597 26.6819 65.1526C26.2374 64.7081 25.9865 64.1062 25.9836 63.4776C25.9865 62.8491 26.2374 62.2471 26.6819 61.8027C27.1263 61.3582 27.7283 61.1073 28.3568 61.1044ZM28.3568 49.0551C28.668 49.0537 28.9763 49.1137 29.2642 49.2318C29.5521 49.3499 29.8137 49.5237 30.0343 49.7432C30.2548 49.9627 30.4298 50.2236 30.5492 50.5109C30.6686 50.7983 30.7301 51.1064 30.7301 51.4175C30.7301 52.0469 30.48 52.6505 30.0349 53.0956C29.5899 53.5407 28.9863 53.7907 28.3568 53.7907C27.7283 53.7878 27.1263 53.5369 26.6819 53.0925C26.2374 52.648 25.9865 52.046 25.9836 51.4175C25.9865 50.79 26.2378 50.1891 26.6825 49.7463C27.1273 49.3036 27.7293 49.0551 28.3568 49.0551ZM28.3568 36.995C28.668 36.9935 28.9763 37.0536 29.2642 37.1717C29.5521 37.2898 29.8137 37.4636 30.0343 37.6831C30.2548 37.9026 30.4298 38.1635 30.5492 38.4508C30.6686 38.7381 30.7301 39.0462 30.7301 39.3573C30.7301 39.9868 30.48 40.5904 30.0349 41.0355C29.5899 41.4805 28.9863 41.7305 28.3568 41.7305C27.7283 41.7277 27.1263 41.4768 26.6819 41.0323C26.2374 40.5879 25.9865 39.9859 25.9836 39.3573C25.9865 38.7298 26.2378 38.129 26.6825 37.6862C27.1273 37.2435 27.7293 36.995 28.3568 36.995ZM28.3568 24.924C28.6689 24.9226 28.9781 24.983 29.2667 25.1018C29.5553 25.2205 29.8175 25.3953 30.0381 25.6159C30.2588 25.8366 30.4335 26.0988 30.5523 26.3873C30.671 26.6759 30.7315 26.9852 30.7301 27.2972C30.7301 27.9266 30.48 28.5303 30.0349 28.9753C29.5899 29.4204 28.9863 29.6704 28.3568 29.6704C27.7283 29.6676 27.1263 29.4166 26.6819 28.9722C26.2374 28.5277 25.9865 27.9258 25.9836 27.2972C25.9865 26.6687 26.2374 26.0667 26.6819 25.6222C27.1263 25.1778 27.7283 24.9269 28.3568 24.924ZM28.3568 12.8639C28.668 12.8625 28.9763 12.9226 29.2642 13.0406C29.5521 13.1587 29.8137 13.3325 30.0343 13.552C30.2548 13.7715 30.4298 14.0324 30.5492 14.3197C30.6686 14.6071 30.7301 14.9152 30.7301 15.2263C30.7301 15.5374 30.6686 15.8455 30.5492 16.1329C30.4298 16.4202 30.2548 16.6811 30.0343 16.9006C29.8137 17.1201 29.5521 17.2939 29.2642 17.412C28.9763 17.5301 28.668 17.5901 28.3568 17.5887C28.0457 17.5901 27.7373 17.5301 27.4494 17.412C27.1616 17.2939 26.8999 17.1201 26.6794 16.9006C26.4589 16.6811 26.2839 16.4202 26.1645 16.1329C26.0451 15.8455 25.9836 15.5374 25.9836 15.2263C25.9865 14.5988 26.2378 13.9979 26.6825 13.5552C27.1273 13.1124 27.7293 12.8639 28.3568 12.8639ZM28.3568 0.792969C28.9863 0.792969 29.5899 1.04302 30.0349 1.48808C30.48 1.93314 30.7301 2.53676 30.7301 3.16617C30.7315 3.47823 30.671 3.78748 30.5523 4.07605C30.4335 4.36462 30.2588 4.62681 30.0381 4.84747C29.8175 5.06812 29.5553 5.24289 29.2667 5.36164C28.9781 5.4804 28.6689 5.54081 28.3568 5.53938C27.7274 5.53938 27.1238 5.28933 26.6787 4.84427C26.2337 4.39921 25.9836 3.79558 25.9836 3.16617C25.9865 2.53764 26.2374 1.93565 26.6819 1.4912C27.1263 1.04676 27.7283 0.795806 28.3568 0.792969Z" fill="#21A099"/>
<path d="M25.9836 75.5375C25.9893 74.9098 26.2411 74.3095 26.685 73.8656C27.1288 73.4218 27.7292 73.1699 28.3568 73.1643C28.8253 73.1675 29.2824 73.3087 29.6711 73.5702C30.0598 73.8317 30.3628 74.2019 30.5423 74.6346C30.7219 75.0673 30.7699 75.5433 30.6805 76.0032C30.5911 76.4631 30.3682 76.8864 30.0397 77.2203C29.5911 77.6638 28.9876 77.9153 28.3568 77.9215C27.7292 77.9159 27.1287 77.6641 26.6848 77.2203C26.2413 76.7718 25.9898 76.1682 25.9836 75.5375Z" fill="#21A099"/>
<path d="M15.7252 61.1044C16.3538 61.1073 16.9558 61.3582 17.4002 61.8026C17.8446 62.2471 18.0956 62.8491 18.0984 63.4776C18.0984 63.7893 18.037 64.0979 17.9178 64.3858C17.7985 64.6737 17.6237 64.9353 17.4034 65.1557C17.183 65.3761 16.9214 65.5509 16.6334 65.6702C16.3455 65.7894 16.0369 65.8508 15.7252 65.8508C15.4141 65.8508 15.106 65.7894 14.8187 65.67C14.5313 65.5506 14.2704 65.3756 14.0509 65.1551C13.8314 64.9345 13.6576 64.6729 13.5395 64.385C13.4214 64.0971 13.3614 63.7888 13.3628 63.4776C13.3628 62.8501 13.6113 62.2481 14.0541 61.8033C14.4968 61.3586 15.0977 61.1073 15.7252 61.1044ZM15.7252 49.0551C16.3528 49.0551 16.9548 49.3036 17.3995 49.7463C17.8443 50.1891 18.0956 50.79 18.0984 51.4175C18.0956 52.046 17.8446 52.648 17.4002 53.0925C16.9558 53.5369 16.3538 53.7878 15.7252 53.7907C15.0977 53.7878 14.4968 53.5365 14.0541 53.0918C13.6113 52.647 13.3628 52.045 13.3628 51.4175C13.3628 50.7909 13.6117 50.19 14.0547 49.747C14.4978 49.304 15.0987 49.0551 15.7252 49.0551ZM15.7252 36.995C16.0364 36.9935 16.3448 37.0536 16.6326 37.1717C16.9205 37.2898 17.1822 37.4636 17.4027 37.6831C17.6232 37.9026 17.7982 38.1635 17.9176 38.4508C18.037 38.7381 18.0984 39.0462 18.0984 39.3573C18.0956 39.9859 17.8446 40.5879 17.4002 41.0323C16.9558 41.4768 16.3538 41.7277 15.7252 41.7305C15.0977 41.7277 14.4968 41.4764 14.0541 41.0317C13.6113 40.5869 13.3628 39.9849 13.3628 39.3573C13.3614 39.0467 13.4215 38.7389 13.5397 38.4516C13.6579 38.1643 13.8319 37.9033 14.0516 37.6837C14.2712 37.464 14.5322 37.2901 14.8195 37.1719C15.1067 37.0537 15.4146 36.9935 15.7252 36.995ZM15.7252 24.924C16.0369 24.924 16.3455 24.9854 16.6334 25.1047C16.9214 25.2239 17.183 25.3987 17.4034 25.6191C17.6237 25.8395 17.7985 26.1011 17.9178 26.3891C18.037 26.677 18.0984 26.9856 18.0984 27.2972C18.0956 27.9258 17.8446 28.5277 17.4002 28.9722C16.9558 29.4166 16.3538 29.6676 15.7252 29.6704C15.0977 29.6676 14.4968 29.4163 14.0541 28.9715C13.6113 28.5268 13.3628 27.9248 13.3628 27.2972C13.3614 26.9861 13.4214 26.6777 13.5395 26.3899C13.6576 26.102 13.8314 25.8403 14.0509 25.6198C14.2704 25.3993 14.5313 25.2243 14.8187 25.1049C15.106 24.9855 15.4141 24.924 15.7252 24.924ZM15.7252 12.8531C16.3538 12.856 16.9558 13.1069 17.4002 13.5514C17.8446 13.9958 18.0956 14.5978 18.0984 15.2263C18.0984 15.5374 18.037 15.8455 17.9176 16.1328C17.7982 16.4202 17.6232 16.6811 17.4027 16.9006C17.1822 17.1201 16.9205 17.2939 16.6326 17.412C16.3448 17.5301 16.0364 17.5901 15.7252 17.5887C15.4146 17.5901 15.1067 17.53 14.8195 17.4118C14.5322 17.2936 14.2712 17.1196 14.0516 16.9C13.8319 16.6803 13.6579 16.4193 13.5397 16.1321C13.4215 15.8448 13.3614 15.5369 13.3628 15.2263C13.3628 14.5988 13.6113 13.9968 14.0541 13.552C14.4968 13.1073 15.0977 12.856 15.7252 12.8531ZM15.7252 0.792969C16.3538 0.795806 16.9558 1.04676 17.4002 1.4912C17.8446 1.93565 18.0956 2.53764 18.0984 3.16617C18.0984 3.47783 18.037 3.78644 17.9178 4.07437C17.7985 4.3623 17.6237 4.6239 17.4034 4.84427C17.183 5.06464 16.9214 5.23945 16.6334 5.35871C16.3455 5.47798 16.0369 5.53938 15.7252 5.53938C15.4141 5.53938 15.106 5.47791 14.8187 5.35852C14.5313 5.23912 14.2704 5.06413 14.0509 4.84361C13.8314 4.6231 13.6576 4.36142 13.5395 4.07355C13.4214 3.78568 13.3614 3.47732 13.3628 3.16617C13.3628 2.53863 13.6113 1.93665 14.0541 1.49189C14.4968 1.04714 15.0977 0.795821 15.7252 0.792969Z" fill="#21A099"/>
<path d="M13.3628 75.5375C13.366 74.9135 13.6094 74.3147 14.0424 73.8655C14.4934 73.4257 15.0954 73.1749 15.7252 73.1643C16.3522 73.1733 16.9514 73.4245 17.3972 73.8655C17.8242 74.3196 18.062 74.9195 18.062 75.5429C18.062 76.1663 17.8242 76.7662 17.3972 77.2203C16.9529 77.6621 16.3518 77.9103 15.7252 77.9107C15.0953 77.9108 14.4907 77.6628 14.0424 77.2203C13.6087 76.7671 13.3654 76.1648 13.3628 75.5375Z" fill="#21A099"/>
<path d="M2.68321 61.1044C2.99486 61.1044 3.30341 61.1658 3.59134 61.2851C3.87927 61.4044 4.1409 61.5792 4.36127 61.7995C4.58165 62.0199 4.75648 62.2815 4.87575 62.5694C4.99501 62.8574 5.05635 63.166 5.05635 63.4776C5.05778 63.7897 4.9974 64.0989 4.87865 64.3875C4.75989 64.6761 4.58509 64.9383 4.36443 65.1589C4.14378 65.3796 3.88163 65.5543 3.59305 65.6731C3.30448 65.7918 2.99526 65.8523 2.68321 65.8508C2.05567 65.848 1.45479 65.5967 1.01206 65.1519C0.569326 64.7072 0.320794 64.1052 0.320801 63.4776C0.320794 62.8501 0.569326 62.2481 1.01206 61.8033C1.45479 61.3586 2.05567 61.1073 2.68321 61.1044ZM2.68321 49.0551C2.99435 49.0537 3.30268 49.1137 3.59055 49.2318C3.87842 49.3499 4.1401 49.5237 4.36062 49.7432C4.58113 49.9627 4.75616 50.2236 4.87555 50.5109C4.99495 50.7983 5.05635 51.1064 5.05635 51.4175C5.05635 51.7292 4.99501 52.0377 4.87575 52.3257C4.75648 52.6136 4.58165 52.8752 4.36127 53.0956C4.1409 53.316 3.87927 53.4908 3.59134 53.61C3.30341 53.7293 2.99486 53.7907 2.68321 53.7907C2.05567 53.7878 1.45479 53.5365 1.01206 53.0918C0.569326 52.647 0.320794 52.045 0.320801 51.4175C0.320801 51.1073 0.381888 50.8001 0.50061 50.5135C0.619332 50.2268 0.793344 49.9664 1.01271 49.747C1.23208 49.5276 1.49254 49.3536 1.77916 49.2349C2.06578 49.1162 2.37297 49.0551 2.68321 49.0551ZM2.68321 36.995C2.99435 36.9935 3.30268 37.0536 3.59055 37.1717C3.87842 37.2898 4.1401 37.4636 4.36062 37.6831C4.58113 37.9026 4.75616 38.1635 4.87555 38.4508C4.99495 38.7381 5.05635 39.0462 5.05635 39.3573C5.05635 39.669 4.99501 39.9776 4.87575 40.2655C4.75648 40.5535 4.58165 40.8151 4.36127 41.0355C4.1409 41.2558 3.87927 41.4307 3.59134 41.5499C3.30341 41.6692 2.99486 41.7305 2.68321 41.7305C2.05567 41.7277 1.45479 41.4764 1.01206 41.0317C0.569326 40.5869 0.320794 39.9849 0.320801 39.3573C0.320801 38.7308 0.569677 38.1299 1.01271 37.6869C1.45575 37.2438 2.05666 36.995 2.68321 36.995ZM2.68321 24.924C2.99526 24.9226 3.30448 24.983 3.59305 25.1018C3.88163 25.2205 4.14378 25.3953 4.36443 25.6159C4.58509 25.8366 4.75989 26.0988 4.87865 26.3873C4.9974 26.6759 5.05778 26.9852 5.05635 27.2972C5.05635 27.6089 4.99501 27.9175 4.87575 28.2054C4.75648 28.4933 4.58165 28.7549 4.36127 28.9753C4.1409 29.1957 3.87927 29.3705 3.59134 29.4898C3.30341 29.609 2.99486 29.6704 2.68321 29.6704C2.05567 29.6676 1.45479 29.4163 1.01206 28.9715C0.569326 28.5268 0.320794 27.9248 0.320801 27.2972C0.320794 26.6697 0.569326 26.0677 1.01206 25.6229C1.45479 25.1782 2.05567 24.9269 2.68321 24.924ZM2.68321 12.8531C2.99486 12.8531 3.30341 12.9145 3.59134 13.0338C3.87927 13.153 4.1409 13.3278 4.36127 13.5482C4.58165 13.7686 4.75648 14.0302 4.87575 14.3181C4.99501 14.6061 5.05635 14.9146 5.05635 15.2263C5.05777 15.5389 4.99747 15.8486 4.87884 16.1378C4.76021 16.427 4.58561 16.6899 4.36509 16.9114C4.14458 17.1329 3.88248 17.3087 3.59384 17.4286C3.30521 17.5486 2.99577 17.6103 2.68321 17.6103C2.05468 17.6046 1.45382 17.3509 1.0114 16.9045C0.56897 16.458 0.320775 15.8548 0.320801 15.2263C0.320794 14.5988 0.569326 13.9968 1.01206 13.552C1.45479 13.1073 2.05567 12.856 2.68321 12.8531ZM2.68321 0.792969C2.99486 0.792969 3.30341 0.85437 3.59134 0.973634C3.87927 1.0929 4.1409 1.2677 4.36127 1.48808C4.58165 1.70845 4.75648 1.97008 4.87575 2.25801C4.99501 2.54594 5.05635 2.85452 5.05635 3.16617C5.05778 3.47823 4.9974 3.78748 4.87865 4.07605C4.75989 4.36462 4.58509 4.62681 4.36443 4.84747C4.14378 5.06812 3.88163 5.24289 3.59305 5.36164C3.30448 5.4804 2.99526 5.54081 2.68321 5.53938C2.05567 5.53653 1.45479 5.28524 1.01206 4.84049C0.569326 4.39574 0.320794 3.79372 0.320801 3.16617C0.320794 2.53863 0.569326 1.93665 1.01206 1.49189C1.45479 1.04714 2.05567 0.795821 2.68321 0.792969Z" fill="#21A099"/>
<path d="M0.320841 75.5375C0.318328 74.9124 0.562546 74.3116 1.00044 73.8655C1.45268 73.4276 2.05388 73.1771 2.68325 73.1643C3.28641 73.205 3.85155 73.4732 4.2644 73.9148C4.67724 74.3564 4.90693 74.9384 4.90693 75.5429C4.90693 76.1474 4.67724 76.7294 4.2644 77.171C3.85155 77.6126 3.28641 77.8808 2.68325 77.9215C2.05555 77.9159 1.45508 77.6641 1.01117 77.2203C0.790611 76.9993 0.616056 76.7369 0.497556 76.448C0.379056 76.1592 0.319011 75.8497 0.320841 75.5375Z" fill="#21A099"/>
</svg>
