<svg width="20" height="18" viewBox="0 0 20 18" fill="none" xmlns="http://www.w3.org/2000/svg">
<path d="M17.8571 0H2.14286C1.57454 0 1.02949 0.196795 0.627628 0.547091C0.225765 0.897387 0 1.37249 0 1.86788L0 15.5657C0 16.0611 0.225765 16.5362 0.627628 16.8865C1.02949 17.2368 1.57454 17.4336 2.14286 17.4336H8.27009V11.5066H5.45759V8.7168H8.27009V6.59052C8.27009 4.172 9.92188 2.83607 12.4518 2.83607C13.6634 2.83607 14.9304 3.02442 14.9304 3.02442V5.39819H13.5344C12.1589 5.39819 11.7299 6.14223 11.7299 6.90534V8.7168H14.8004L14.3094 11.5066H11.7299V17.4336H17.8571C18.4255 17.4336 18.9705 17.2368 19.3724 16.8865C19.7742 16.5362 20 16.0611 20 15.5657V1.86788C20 1.37249 19.7742 0.897387 19.3724 0.547091C18.9705 0.196795 18.4255 0 17.8571 0Z" fill="white"/>
</svg>
