<svg width="18" height="14" viewBox="0 0 18 14" fill="none" xmlns="http://www.w3.org/2000/svg">
<path d="M15.4546 0H2.1042C1.62137 0 1.15832 0.153731 0.816907 0.427373C0.475495 0.701015 0.283691 1.07215 0.283691 1.45914L0.283691 12.1595C0.283691 12.5465 0.475495 12.9176 0.816907 13.1913C1.15832 13.4649 1.62137 13.6187 2.1042 13.6187H7.30973V8.98861H4.92031V6.80933H7.30973V5.14834C7.30973 3.25905 8.71304 2.21546 10.8624 2.21546C11.8917 2.21546 12.9681 2.36259 12.9681 2.36259V4.21692H11.7821C10.6136 4.21692 10.2491 4.79814 10.2491 5.39426V6.80933H12.8577L12.4405 8.98861H10.2491V13.6187H15.4546C15.9375 13.6187 16.4005 13.4649 16.7419 13.1913C17.0833 12.9176 17.2751 12.5465 17.2751 12.1595V1.45914C17.2751 1.07215 17.0833 0.701015 16.7419 0.427373C16.4005 0.153731 15.9375 0 15.4546 0Z" fill="white"/>
</svg>
