<svg width="23" height="14" viewBox="0 0 23 14" fill="none" xmlns="http://www.w3.org/2000/svg">
<path d="M21.512 0.122997C21.4194 0.115251 21.326 0.115251 21.2334 0.122997H2.20323C2.08126 0.124522 1.96011 0.139361 1.84302 0.167116L11.6639 8.10303L21.512 0.122997Z" fill="white"/>
<path d="M22.5182 0.888672L12.6224 8.88531C12.3677 9.09074 12.0232 9.20605 11.6641 9.20605C11.305 9.20605 10.9605 9.09074 10.7058 8.88531L0.898406 0.949336C0.868256 1.03925 0.85227 1.13191 0.85083 1.22508V12.2549C0.85083 12.5475 0.994042 12.828 1.24896 13.0349C1.50388 13.2417 1.84963 13.3579 2.21014 13.3579H21.2404C21.601 13.3579 21.9467 13.2417 22.2016 13.0349C22.4565 12.828 22.5997 12.5475 22.5997 12.2549V1.22508C22.5943 1.11018 22.5668 0.996674 22.5182 0.888672ZM3.14126 12.2549H2.19654V11.4663L7.13763 7.49003L8.09594 8.26764L3.14126 12.2549ZM21.2268 12.2549H20.2753L15.3207 8.26764L16.279 7.49003L21.22 11.4663L21.2268 12.2549Z" fill="white"/>
</svg>
