<svg width="17" height="15" viewBox="0 0 17 15" fill="none" xmlns="http://www.w3.org/2000/svg">
<path d="M16.9367 4.34229C16.9272 3.72457 16.7934 3.11299 16.5414 2.53491C16.3228 2.0473 15.989 1.60446 15.5612 1.23469C15.1334 0.864921 14.6211 0.576349 14.057 0.387413C13.3968 0.1732 12.6994 0.0573708 11.9944 0.0448584C11.0867 0.00978734 10.7989 0 8.49478 0C6.19063 0 5.8953 5.46907e-08 4.99421 0.0448584C4.28953 0.0574628 3.59242 0.17329 2.93255 0.387413C2.36836 0.576218 1.85598 0.864743 1.42819 1.23453C1.00039 1.60432 0.666608 2.04722 0.448186 2.53491C0.199873 3.10512 0.0661647 3.70784 0.0528388 4.31701C0.0122661 5.10244 0 5.3512 0 7.34291C0 9.33462 -7.02999e-09 9.58909 0.0528388 10.3688C0.066992 10.9789 0.200032 11.5808 0.448186 12.1525C0.666974 12.6401 1.00101 13.0828 1.42895 13.4524C1.85688 13.8221 2.36931 14.1105 2.9335 14.2992C3.59156 14.522 4.28878 14.6462 4.99515 14.6662C5.90379 14.7013 6.19157 14.7119 8.49572 14.7119C10.7999 14.7119 11.0952 14.7119 11.9963 14.6662C12.7013 14.6542 13.3987 14.5387 14.0589 14.3245C14.6228 14.1353 15.135 13.8467 15.5628 13.477C15.9905 13.1072 16.3244 12.6645 16.5433 12.177C16.7914 11.6061 16.9245 11.0042 16.9386 10.3933C16.9792 9.60866 16.9914 9.3599 16.9914 7.36738C16.9896 5.37566 16.9896 5.12283 16.9367 4.34229ZM8.48912 11.1094C6.07929 11.1094 4.12709 9.42189 4.12709 7.33883C4.12709 5.25577 6.07929 3.56828 8.48912 3.56828C9.646 3.56828 10.7555 3.96553 11.5735 4.67265C12.3916 5.37976 12.8511 6.33882 12.8511 7.33883C12.8511 8.33884 12.3916 9.2979 11.5735 10.005C10.7555 10.7121 9.646 11.1094 8.48912 11.1094ZM13.0248 4.30803C12.4615 4.30803 12.0076 3.91491 12.0076 3.42881C12.0076 3.3134 12.0339 3.19913 12.085 3.0925C12.1361 2.98588 12.211 2.889 12.3054 2.80739C12.3998 2.72579 12.5119 2.66106 12.6352 2.61689C12.7586 2.57273 12.8908 2.54999 13.0243 2.54999C13.1578 2.54999 13.29 2.57273 13.4134 2.61689C13.5367 2.66106 13.6488 2.72579 13.7432 2.80739C13.8376 2.889 13.9125 2.98588 13.9636 3.0925C14.0147 3.19913 14.041 3.3134 14.041 3.42881C14.041 3.91491 13.5862 4.30803 13.0248 4.30803Z" fill="white"/>
<path d="M8.4957 10.415C10.3725 10.415 11.894 9.09769 11.894 7.47266C11.894 5.84762 10.3725 4.53027 8.4957 4.53027C6.61888 4.53027 5.09741 5.84762 5.09741 7.47266C5.09741 9.09769 6.61888 10.415 8.4957 10.415Z" fill="white"/>
</svg>
