<svg width="60" height="61" viewBox="0 0 60 61" fill="none" xmlns="http://www.w3.org/2000/svg">
<path d="M58.5 30.0228C58.5 45.7766 45.739 58.5457 30 58.5457C14.261 58.5457 1.5 45.7766 1.5 30.0228C1.5 14.269 14.261 1.5 30 1.5C45.739 1.5 58.5 14.269 58.5 30.0228Z" fill="#2A9D8F" stroke="white" stroke-width="3"/>
<g clip-path="url(#clip0_1_530)">
<path d="M39.6987 22.1081C39.8646 21.1899 39.8147 20.2331 39.5548 19.3481C39.2949 18.463 38.8356 17.686 38.2299 17.1066C37.6242 16.5273 36.8969 16.1692 36.1319 16.0739C35.3669 15.9786 34.5955 16.1498 33.9067 16.5678C33.6497 15.5501 33.1329 14.6597 32.4321 14.0273C31.7312 13.3949 30.8831 13.0537 30.0121 13.0537C29.141 13.0537 28.2929 13.3949 27.592 14.0273C26.8912 14.6597 26.3744 15.5501 26.1174 16.5678C25.4286 16.1498 24.6572 15.9786 23.8922 16.0739C23.1272 16.1692 22.3999 16.5273 21.7942 17.1066C21.1885 17.686 20.7292 18.463 20.4693 19.3481C20.2094 20.2331 20.1595 21.1899 20.3254 22.1081C19.3232 22.3283 18.4246 22.9992 17.8065 23.9889C17.1885 24.9786 16.8958 26.2154 16.986 27.4558C17.0762 28.6962 17.5429 29.8503 18.294 30.6911C19.0452 31.5319 20.0265 31.9983 21.0448 31.9987H21.1264C21.3426 33.2942 21.9708 34.4317 22.8727 35.1608C23.7747 35.8899 24.8766 36.151 25.936 35.8866C26.9954 35.6222 27.9256 34.854 28.5218 33.751C29.118 32.6479 29.3315 31.3004 29.1153 30.0049H30.0936C29.8901 31.3032 30.1167 32.6473 30.7235 33.7413C31.3303 34.8353 32.2677 35.5898 33.3294 35.8386C34.3911 36.0875 35.4902 35.8104 36.3848 35.0683C37.2794 34.3262 37.8964 33.1799 38.0999 31.8815C38.6304 32.0286 39.1796 32.0443 39.7152 31.9277C40.2507 31.8111 40.7618 31.5646 41.2182 31.2027C41.6747 30.8407 42.0673 30.3708 42.3728 29.8204C42.6784 29.2701 42.8908 28.6505 42.9976 27.9982C43.1043 27.3459 43.1032 26.6741 42.9942 26.0223C42.8853 25.3706 42.6708 24.752 42.3634 24.2032C42.056 23.6544 41.6618 23.1864 41.2042 22.8268C40.7465 22.4672 40.2346 22.2233 39.6987 22.1094V22.1081Z" fill="white"/>
<path d="M27.355 46.3723H32.6917L31.9293 26.7561H28.1174L27.355 46.3723Z" fill="white"/>
</g>
<defs>
<clipPath id="clip0_1_530">
<rect width="26.1068" height="33.3186" fill="white" transform="translate(16.97 13.0537)"/>
</clipPath>
</defs>
</svg>
