<svg width="28" height="29" viewBox="0 0 28 29" fill="none" xmlns="http://www.w3.org/2000/svg">
<ellipse cx="14" cy="14.0107" rx="14" ry="14.0107" fill="#2A9D8F"/>
<g clip-path="url(#clip0_1_324)">
<path d="M18.5267 10.3172C18.6041 9.8887 18.5808 9.44216 18.4595 9.02916C18.3382 8.61615 18.1239 8.25352 17.8412 7.98316C17.5586 7.71279 17.2192 7.54571 16.8622 7.50122C16.5052 7.45673 16.1452 7.53664 15.8237 7.73173C15.7038 7.25677 15.4626 6.84128 15.1356 6.54615C14.8085 6.25103 14.4127 6.0918 14.0062 6.0918C13.5998 6.0918 13.204 6.25103 12.8769 6.54615C12.5498 6.84128 12.3086 7.25677 12.1887 7.73173C11.8673 7.53664 11.5073 7.45673 11.1503 7.50122C10.7933 7.54571 10.4539 7.71279 10.1712 7.98316C9.88857 8.25352 9.67423 8.61615 9.55294 9.02916C9.43166 9.44216 9.40838 9.8887 9.4858 10.3172C9.01807 10.4199 8.59873 10.733 8.31032 11.1949C8.0219 11.6568 7.8853 12.2339 7.92741 12.8128C7.96951 13.3916 8.18727 13.9302 8.53782 14.3226C8.88837 14.7149 9.34632 14.9326 9.82153 14.9328H9.85957C9.96046 15.5374 10.2536 16.0682 10.6746 16.4084C11.0955 16.7487 11.6097 16.8705 12.1041 16.7472C12.5985 16.6238 13.0325 16.2653 13.3108 15.7505C13.589 15.2358 13.6887 14.6069 13.5878 14.0023H14.0443C13.9493 14.6082 14.055 15.2354 14.3382 15.746C14.6214 16.2566 15.0589 16.6086 15.5543 16.7248C16.0498 16.8409 16.5627 16.7116 16.9802 16.3653C17.3977 16.019 17.6856 15.484 17.7805 14.8781C18.0281 14.9467 18.2844 14.9541 18.5344 14.8996C18.7843 14.8452 19.0228 14.7302 19.2358 14.5613C19.4488 14.3924 19.632 14.1731 19.7746 13.9163C19.9172 13.6594 20.0163 13.3703 20.0661 13.0659C20.1159 12.7615 20.1154 12.448 20.0646 12.1438C20.0138 11.8397 19.9137 11.551 19.7702 11.2949C19.6267 11.0388 19.4428 10.8204 19.2292 10.6526C19.0156 10.4848 18.7768 10.3709 18.5267 10.3178V10.3172Z" fill="white"/>
<path d="M12.7664 21.6405H15.2568L14.9011 12.4863H13.1221L12.7664 21.6405Z" fill="white"/>
</g>
<defs>
<clipPath id="clip0_1_324">
<rect width="12.1832" height="15.5487" fill="white" transform="translate(7.91992 6.0918)"/>
</clipPath>
</defs>
</svg>
