<svg width="100" height="101" viewBox="0 0 100 101" fill="none" xmlns="http://www.w3.org/2000/svg">
<path d="M98.5 50.0381C98.5 76.8459 76.7847 98.5761 50 98.5761C23.2153 98.5761 1.5 76.8459 1.5 50.0381C1.5 23.2302 23.2153 1.5 50 1.5C76.7847 1.5 98.5 23.2302 98.5 50.0381Z" fill="#2A9D8F" stroke="white" stroke-width="3"/>
<g clip-path="url(#clip0_1_285)">
<path d="M66.1634 36.8466C66.4399 35.3162 66.3568 33.7215 65.9236 32.2464C65.4905 30.7714 64.7249 29.4763 63.7155 28.5107C62.706 27.5451 61.4938 26.9484 60.2188 26.7895C58.9438 26.6306 57.6581 26.916 56.5101 27.6127C56.0818 25.9165 55.2205 24.4326 54.0524 23.3786C52.8842 22.3245 51.4707 21.7559 50.019 21.7559C48.5673 21.7559 47.1538 22.3245 45.9857 23.3786C44.8175 24.4326 43.9562 25.9165 43.528 27.6127C42.38 26.916 41.0943 26.6306 39.8193 26.7895C38.5443 26.9484 37.332 27.5451 36.3226 28.5107C35.3131 29.4763 34.5476 30.7714 34.1144 32.2464C33.6813 33.7215 33.5981 35.3162 33.8746 36.8466C32.2042 37.2135 30.7066 38.3317 29.6765 39.9812C28.6464 41.6308 28.1586 43.692 28.309 45.7593C28.4593 47.8266 29.237 49.7502 30.489 51.1515C31.741 52.5528 33.3765 53.3302 35.0737 53.3308H35.2095C35.5699 55.49 36.6169 57.3858 38.1202 58.601C39.6235 59.8162 41.46 60.2514 43.2257 59.8107C44.9914 59.37 46.5416 58.0897 47.5353 56.2513C48.529 54.4129 48.8848 52.167 48.5245 50.0078H50.1549C49.8157 52.1717 50.1934 54.4118 51.2048 56.2352C52.2162 58.0586 53.7785 59.316 55.548 59.7307C57.3175 60.1455 59.1492 59.6837 60.6403 58.4468C62.1313 57.21 63.1595 55.2995 63.4987 53.1356C64.3829 53.3806 65.2983 53.4068 66.1909 53.2125C67.0835 53.0181 67.9353 52.6073 68.696 52.0041C69.4567 51.4009 70.111 50.6176 70.6203 49.7004C71.1297 48.7832 71.4837 47.7505 71.6616 46.6634C71.8394 45.5762 71.8375 44.4565 71.656 43.3702C71.4745 42.2839 71.117 41.2531 70.6046 40.3384C70.0922 39.4237 69.4353 38.6438 68.6725 38.0444C67.9098 37.4451 67.0567 37.0385 66.1634 36.8487V36.8466Z" fill="white"/>
<path d="M45.5908 77.2869H54.4854L53.2147 44.5933H46.8615L45.5908 77.2869Z" fill="white"/>
</g>
<defs>
<clipPath id="clip0_1_285">
<rect width="43.5113" height="55.5311" fill="white" transform="translate(28.2822 21.7559)"/>
</clipPath>
</defs>
</svg>
