<svg width="18" height="14" viewBox="0 0 18 14" fill="none" xmlns="http://www.w3.org/2000/svg">
<path d="M15.7383 0H2.38789C1.38282 0 0.567383 0.653574 0.567383 1.45914V12.1595C0.567383 12.9651 1.38282 13.6187 2.38789 13.6187H15.7383C16.7434 13.6187 17.5588 12.9651 17.5588 12.1595V1.45914C17.5588 0.653574 16.7434 0 15.7383 0ZM13.8837 4.82733C13.8913 4.91244 13.8913 5.0006 13.8913 5.08572C13.8913 7.72129 11.388 10.7581 6.81401 10.7581C5.40312 10.7581 4.09462 10.4298 2.99473 9.8644C3.19575 9.88264 3.38918 9.88872 3.59398 9.88872C4.75835 9.88872 5.8279 9.57257 6.68127 9.03756C5.58896 9.01932 4.67112 8.44478 4.35632 7.65441C4.73939 7.70001 5.08453 7.70001 5.47897 7.61793C4.34115 7.4325 3.48779 6.62997 3.48779 5.66025V5.63593C3.81775 5.78489 4.20461 5.87608 4.61044 5.88824C4.26925 5.70635 3.98956 5.45958 3.79631 5.16997C3.60307 4.88035 3.50229 4.5569 3.50296 4.22847C3.50296 3.8576 3.62433 3.51714 3.84051 3.22227C5.06556 4.43214 6.90504 5.22251 8.96828 5.30763C8.61556 3.95488 9.87854 2.85749 11.3956 2.85749C12.1125 2.85749 12.7572 3.09764 13.2124 3.48674C13.7737 3.40162 14.3122 3.23443 14.7901 3.00644C14.6043 3.4685 14.2136 3.8576 13.6978 4.10383C14.1985 4.06128 14.6839 3.9488 15.1315 3.79377C14.7939 4.19199 14.3691 4.54462 13.8837 4.82733Z" fill="white"/>
</svg>
