<svg width="20" height="18" viewBox="0 0 20 18" fill="none" xmlns="http://www.w3.org/2000/svg">
<path d="M17.8571 0H2.14286C0.959821 0 0 0.836657 0 1.86788V15.5657C0 16.5969 0.959821 17.4336 2.14286 17.4336H17.8571C19.0402 17.4336 20 16.5969 20 15.5657V1.86788C20 0.836657 19.0402 0 17.8571 0ZM15.6741 6.17959C15.683 6.28855 15.683 6.4014 15.683 6.51036C15.683 9.88422 12.7366 13.7718 7.35268 13.7718C5.69196 13.7718 4.15179 13.3515 2.85714 12.6277C3.09375 12.651 3.32143 12.6588 3.5625 12.6588C4.93304 12.6588 6.19196 12.2541 7.19643 11.5692C5.91071 11.5459 4.83036 10.8104 4.45982 9.79861C4.91071 9.85698 5.31696 9.85699 5.78125 9.75192C4.44196 9.51454 3.4375 8.4872 3.4375 7.24584V7.21471C3.82589 7.40539 4.28125 7.52213 4.75893 7.53769C4.35733 7.30484 4.02812 6.98895 3.80066 6.61821C3.5732 6.24747 3.45457 5.83341 3.45536 5.41298C3.45536 4.93822 3.59821 4.50238 3.85268 4.12491C5.29464 5.6737 7.45982 6.68547 9.88839 6.79443C9.47321 5.06275 10.9598 3.65794 12.7455 3.65794C13.5893 3.65794 14.3482 3.96536 14.8839 4.46347C15.5446 4.35451 16.1786 4.14048 16.7411 3.84862C16.5223 4.44012 16.0625 4.93822 15.4554 5.25343C16.0446 5.19895 16.6161 5.05496 17.1429 4.8565C16.7455 5.36628 16.2455 5.81768 15.6741 6.17959Z" fill="white"/>
</svg>
