<svg width="26" height="18" viewBox="0 0 26 18" fill="none" xmlns="http://www.w3.org/2000/svg">
<path d="M24.3196 0.157827C24.2106 0.147912 24.1007 0.147912 23.9916 0.157827H1.59196C1.4484 0.159779 1.30579 0.178774 1.16797 0.214301L12.7278 10.3726L24.3196 0.157827Z" fill="white"/>
<path d="M25.5039 1.1377L13.8559 11.3742C13.5561 11.6372 13.1506 11.7848 12.7279 11.7848C12.3052 11.7848 11.8997 11.6372 11.5999 11.3742L0.0559997 1.21535C0.0205114 1.33045 0.00169494 1.44906 0 1.56834V15.6877C0 16.0621 0.16857 16.4213 0.468626 16.6861C0.768683 16.9509 1.17565 17.0996 1.59999 17.0996H23.9999C24.4242 17.0996 24.8312 16.9509 25.1312 16.6861C25.4313 16.4213 25.5999 16.0621 25.5999 15.6877V1.56834C25.5935 1.42125 25.5611 1.27595 25.5039 1.1377ZM2.69598 15.6877H1.58399V14.6781L7.39996 9.58812L8.52795 10.5835L2.69598 15.6877ZM23.9839 15.6877H22.8639L17.0319 10.5835L18.1599 9.58812L23.9759 14.6781L23.9839 15.6877Z" fill="white"/>
</svg>
