<svg width="20" height="19" viewBox="0 0 20 19" fill="none" xmlns="http://www.w3.org/2000/svg">
<path d="M19.9356 5.55865C19.9244 4.76789 19.7669 3.985 19.4702 3.24498C19.213 2.62078 18.82 2.0539 18.3165 1.58055C17.813 1.1072 17.21 0.737796 16.546 0.495935C15.7689 0.221717 14.948 0.0734415 14.1182 0.0574242C13.0498 0.012529 12.711 0 9.99889 0C7.28676 0 6.93914 7.00106e-08 5.8785 0.0574242C5.04904 0.0735593 4.22851 0.221832 3.4518 0.495935C2.78771 0.737627 2.18461 1.10697 1.68107 1.58034C1.17753 2.05372 0.784639 2.62069 0.527543 3.24498C0.235263 3.97493 0.07788 4.74648 0.0621946 5.52628C0.014438 6.53173 0 6.85017 0 9.3998C0 11.9494 -8.27475e-09 12.2752 0.0621946 13.2733C0.0788538 14.0543 0.235451 14.8248 0.527543 15.5567C0.785071 16.1808 1.17825 16.7476 1.68196 17.2207C2.18567 17.6939 2.78883 18.0631 3.45291 18.3047C4.22749 18.5899 5.04817 18.7488 5.87961 18.7745C6.94913 18.8194 7.28787 18.833 10 18.833C12.7121 18.833 13.0598 18.833 14.1204 18.7745C14.9502 18.7592 15.7712 18.6112 16.5482 18.3371C17.212 18.0949 17.8149 17.7254 18.3183 17.2521C18.8218 16.7788 19.2149 16.2121 19.4725 15.588C19.7646 14.8572 19.9211 14.0866 19.9378 13.3046C19.9856 12.3002 20 11.9818 20 9.43112C19.9978 6.88149 19.9978 6.55783 19.9356 5.55865ZM9.99223 14.2213C7.15571 14.2213 4.85784 12.0611 4.85784 9.39458C4.85784 6.72801 7.15571 4.56782 9.99223 4.56782C11.354 4.56782 12.6599 5.07636 13.6228 5.98155C14.5857 6.88674 15.1266 8.11444 15.1266 9.39458C15.1266 10.6747 14.5857 11.9024 13.6228 12.8076C12.6599 13.7128 11.354 14.2213 9.99223 14.2213ZM15.331 5.5148C14.6679 5.5148 14.1337 5.01156 14.1337 4.38929C14.1337 4.24155 14.1647 4.09526 14.2248 3.95877C14.285 3.82228 14.3731 3.69826 14.4842 3.5938C14.5953 3.48933 14.7273 3.40647 14.8725 3.34993C15.0176 3.2934 15.1733 3.2643 15.3304 3.2643C15.4876 3.2643 15.6432 3.2934 15.7884 3.34993C15.9336 3.40647 16.0655 3.48933 16.1766 3.5938C16.2877 3.69826 16.3759 3.82228 16.436 3.95877C16.4961 4.09526 16.5271 4.24155 16.5271 4.38929C16.5271 5.01156 15.9918 5.5148 15.331 5.5148Z" fill="white"/>
<path d="M10 13.3335C12.2091 13.3335 14 11.6469 14 9.56641C14 7.4859 12.2091 5.79932 10 5.79932C7.79086 5.79932 6 7.4859 6 9.56641C6 11.6469 7.79086 13.3335 10 13.3335Z" fill="white"/>
</svg>
