<svg width="25" height="24" viewBox="0 0 25 24" fill="none" xmlns="http://www.w3.org/2000/svg">
<path d="M21.166 21L15.1706 15L21.166 21ZM17.169 10C17.169 10.9193 16.9881 11.8295 16.6366 12.6788C16.2851 13.5281 15.7699 14.2997 15.1203 14.9497C14.4708 15.5998 13.6997 16.1154 12.8511 16.4672C12.0025 16.8189 11.0929 17 10.1744 17C9.25581 17 8.34625 16.8189 7.49762 16.4672C6.64898 16.1154 5.8779 15.5998 5.22838 14.9497C4.57886 14.2997 4.06364 13.5281 3.71213 12.6788C3.36061 11.8295 3.17969 10.9193 3.17969 10C3.17969 8.14348 3.91662 6.36301 5.22838 5.05025C6.54014 3.7375 8.31926 3 10.1744 3C12.0295 3 13.8086 3.7375 15.1203 5.05025C16.4321 6.36301 17.169 8.14348 17.169 10Z" stroke="#6D6D6D" stroke-width="2" stroke-linecap="round" stroke-linejoin="round"/>
</svg>
