<svg width="46" height="46" viewBox="0 0 46 46" fill="none" xmlns="http://www.w3.org/2000/svg">
<ellipse cx="22.9825" cy="23" rx="22.9825" ry="23" fill="#2A9D8F"/>
<g clip-path="url(#clip0_1_42)">
<path d="M30.4121 16.9365C30.5392 16.233 30.501 15.5 30.3019 14.822C30.1028 14.144 29.7509 13.5487 29.2869 13.1049C28.8229 12.661 28.2657 12.3868 27.6796 12.3137C27.0936 12.2407 26.5026 12.3719 25.9749 12.6921C25.7781 11.9124 25.3822 11.2304 24.8453 10.7459C24.3083 10.2614 23.6586 10 22.9913 10C22.3241 10 21.6743 10.2614 21.1374 10.7459C20.6005 11.2304 20.2046 11.9124 20.0077 12.6921C19.48 12.3719 18.8891 12.2407 18.303 12.3137C17.717 12.3868 17.1597 12.661 16.6957 13.1049C16.2317 13.5487 15.8799 14.144 15.6808 14.822C15.4817 15.5 15.4435 16.233 15.5706 16.9365C14.8027 17.1051 14.1143 17.6191 13.6409 18.3773C13.1674 19.1355 12.9432 20.083 13.0123 21.0332C13.0814 21.9834 13.4389 22.8676 14.0143 23.5117C14.5898 24.1558 15.3416 24.5132 16.1217 24.5134H16.1841C16.3498 25.5059 16.831 26.3773 17.522 26.9359C18.213 27.4944 19.0572 27.6945 19.8688 27.4919C20.6804 27.2894 21.3929 26.7008 21.8497 25.8558C22.3064 25.0108 22.47 23.9785 22.3044 22.986H23.0538C22.8979 23.9807 23.0715 25.0103 23.5364 25.8484C24.0012 26.6865 24.7193 27.2645 25.5327 27.4552C26.3461 27.6458 27.188 27.4335 27.8734 26.865C28.5587 26.2965 29.0314 25.4183 29.1873 24.4237C29.5937 24.5363 30.0145 24.5484 30.4247 24.459C30.835 24.3697 31.2265 24.1809 31.5762 23.9036C31.9259 23.6264 32.2266 23.2663 32.4607 22.8447C32.6948 22.4231 32.8576 21.9485 32.9393 21.4487C33.0211 20.949 33.0202 20.4343 32.9368 19.935C32.8533 19.4357 32.689 18.9619 32.4535 18.5415C32.218 18.121 31.916 17.7625 31.5654 17.487C31.2148 17.2115 30.8227 17.0247 30.4121 16.9374V16.9365Z" fill="white"/>
<path d="M20.9556 35.5249H25.044L24.4599 20.4973H21.5396L20.9556 35.5249Z" fill="white"/>
</g>
<defs>
<clipPath id="clip0_1_42">
<rect width="20" height="25.5249" fill="white" transform="translate(13 10)"/>
</clipPath>
</defs>
</svg>
